<svg id="svg" version="1.1" xmlns="http://www.w3.org/2000/svg" xmlns:xlink="http://www.w3.org/1999/xlink" width="400" height="400" viewBox="0, 0, 400,400"><g id="svgg"><path id="path0" d="M199.113 61.713 C 198.896 63.328,196.024 69.748,194.592 71.820 C 190.062 78.371,190.351 88.826,195.210 94.238 C 196.069 95.195,196.603 95.092,196.058 94.075 C 195.535 93.097,195.764 85.625,196.329 85.215 C 196.522 85.075,196.729 84.521,196.788 83.984 C 196.967 82.375,199.158 78.040,199.702 78.218 C 201.676 78.866,203.516 84.557,203.516 90.015 C 203.516 94.475,203.862 94.547,205.816 90.492 C 209.540 82.762,208.902 76.546,203.463 67.578 C 202.356 65.752,200.974 63.312,200.392 62.156 L 199.335 60.054 199.113 61.713 M204.883 99.042 C 199.816 101.874,199.291 101.948,195.271 100.398 C 193.484 99.709,191.080 99.048,189.929 98.929 L 187.835 98.713 187.961 105.053 C 188.074 110.796,188.157 111.445,188.844 111.946 C 191.101 113.595,192.188 112.055,192.188 107.208 C 192.188 103.204,192.694 102.936,193.302 106.618 C 194.393 113.226,193.785 115.234,190.692 115.234 L 189.063 115.234 189.063 122.438 C 189.063 126.400,189.213 129.735,189.398 129.849 C 189.582 129.963,192.922 129.945,196.820 129.810 L 203.906 129.565 203.918 122.497 C 203.941 108.788,205.218 99.597,206.053 107.129 C 206.374 110.026,207.090 111.328,208.360 111.328 C 210.147 111.328,210.352 110.531,210.352 103.554 C 210.352 95.711,210.550 95.875,204.883 99.042 M183.331 132.755 C 169.492 133.636,193.812 134.417,213.086 133.710 C 218.286 133.519,220.040 133.348,218.945 133.139 C 216.867 132.740,188.380 132.433,183.331 132.755 M192.090 136.556 C 191.946 136.700,192.064 137.279,192.353 137.842 C 192.641 138.406,193.103 139.922,193.378 141.211 C 194.770 147.731,195.710 146.594,196.604 137.305 C 196.681 136.512,192.781 135.865,192.090 136.556 M185.767 137.991 C 186.453 140.213,190.583 145.484,191.175 144.893 C 191.342 144.726,189.277 141.361,187.425 138.784 C 186.277 137.187,185.387 136.761,185.767 137.991 M211.416 139.712 C 210.401 141.143,208.979 142.989,208.255 143.813 C 206.518 145.794,207.548 145.818,209.711 143.848 C 211.149 142.538,214.063 138.237,214.063 137.425 C 214.063 136.524,213.068 137.383,211.416 139.712 M116.016 149.744 C 116.016 150.248,114.940 152.748,113.625 155.300 C 110.742 160.895,110.470 163.083,112.190 166.845 C 113.124 168.887,114.578 170.657,113.926 168.957 C 113.175 167.001,115.860 159.216,116.968 160.136 C 117.912 160.920,119.258 165.874,119.044 167.778 C 118.935 168.742,118.909 169.531,118.987 169.531 C 119.850 169.531,122.561 160.776,121.837 160.328 C 121.643 160.208,121.484 159.684,121.484 159.164 C 121.484 158.157,116.818 148.828,116.314 148.828 C 116.150 148.828,116.016 149.240,116.016 149.744 M283.984 149.388 C 283.984 149.696,282.931 152.026,281.644 154.564 C 278.330 161.099,278.054 163.680,280.223 167.871 C 281.098 169.563,281.426 169.468,281.540 167.489 C 281.663 165.370,282.722 161.719,283.214 161.719 C 283.423 161.719,283.573 161.587,283.547 161.426 C 283.253 159.560,284.568 159.808,285.616 161.816 C 286.272 163.072,286.488 164.171,286.503 166.323 C 286.527 169.661,287.157 169.389,288.650 165.399 C 290.189 161.285,289.608 158.114,286.240 152.246 C 284.221 148.728,283.984 148.429,283.984 149.388 M195.327 153.879 C 194.889 154.164,194.843 154.499,195.131 155.308 C 195.989 157.715,198.242 157.518,198.242 155.036 C 198.242 153.619,196.680 152.999,195.327 153.879 M149.768 161.230 C 149.325 162.694,147.257 166.797,146.962 166.797 C 146.792 166.797,146.631 167.104,146.607 167.480 C 146.582 167.856,146.268 168.950,145.909 169.910 C 145.196 171.819,145.321 173.474,146.361 175.879 C 147.198 177.817,147.519 177.726,147.742 175.488 C 147.937 173.521,149.477 169.531,150.040 169.531 C 150.856 169.531,152.077 172.914,152.112 175.273 L 152.148 177.694 153.030 176.250 C 155.448 172.286,155.072 168.496,151.767 163.516 C 150.977 162.325,150.442 161.170,150.579 160.949 C 150.715 160.728,150.636 160.547,150.401 160.547 C 150.167 160.547,149.882 160.854,149.768 161.230 M249.773 161.173 C 249.637 161.581,248.622 163.745,247.517 165.983 C 245.141 170.793,244.911 173.118,246.506 176.172 L 247.424 177.930 247.723 175.671 C 248.038 173.289,249.055 170.703,249.677 170.703 C 249.880 170.703,249.945 170.539,249.821 170.339 C 249.698 170.139,249.766 169.871,249.974 169.743 C 250.182 169.614,250.542 169.866,250.775 170.302 C 251.009 170.737,251.093 171.094,250.962 171.094 C 250.832 171.094,250.984 171.352,251.300 171.668 C 251.958 172.327,252.568 176.658,252.109 177.421 C 251.869 177.820,251.942 177.817,252.449 177.406 C 253.361 176.667,254.688 172.919,254.688 171.083 C 254.688 168.224,250.342 159.463,249.773 161.173 M197.852 164.645 C 197.637 164.717,196.978 164.882,196.387 165.012 C 192.963 165.767,197.242 166.299,201.758 165.679 L 203.711 165.411 201.878 164.932 C 200.116 164.472,198.678 164.369,197.852 164.645 M220.614 164.844 C 219.531 167.835,219.256 170.487,219.981 170.935 C 220.705 171.382,221.488 169.904,221.438 168.187 C 221.376 166.055,220.889 164.082,220.614 164.844 M178.060 165.918 C 177.365 167.631,177.421 170.462,178.153 170.609 C 179.117 170.804,179.741 168.952,179.450 166.760 C 179.165 164.606,178.706 164.328,178.060 165.918 M194.336 168.359 C 193.864 169.124,194.563 169.455,197.166 169.700 C 200.527 170.016,203.268 169.554,203.443 168.642 C 203.593 167.865,194.810 167.592,194.336 168.359 M112.500 182.813 L 112.500 191.016 114.307 191.016 L 116.113 191.016 115.869 189.795 C 115.735 189.124,115.625 185.432,115.625 181.592 L 115.625 174.609 114.063 174.609 L 112.500 174.609 112.500 182.813 M195.502 175.009 C 194.572 176.514,194.390 188.281,195.296 188.281 C 195.805 188.281,196.484 182.686,196.484 178.500 C 196.484 174.960,196.187 173.902,195.502 175.009 M279.948 174.870 C 279.805 175.013,279.688 178.704,279.688 183.073 L 279.688 191.016 281.250 191.016 L 282.813 191.016 282.813 183.050 C 282.813 176.146,282.730 175.052,282.195 174.846 C 281.379 174.533,280.273 174.545,279.948 174.870 M146.619 185.645 C 146.757 187.417,146.871 190.493,146.873 192.480 C 146.875 196.018,146.894 196.094,147.798 196.094 C 148.968 196.094,149.219 194.565,149.219 187.445 L 149.219 182.422 147.794 182.422 L 146.369 182.422 146.619 185.645 M247.266 188.420 C 247.266 195.180,247.364 195.703,248.635 195.703 C 249.508 195.703,249.536 195.582,249.802 190.527 C 250.189 183.164,250.107 182.646,248.535 182.495 L 247.266 182.372 247.266 188.420 M102.930 193.732 C 99.751 193.912,99.242 194.021,100.195 194.313 C 101.924 194.842,130.487 194.832,131.382 194.301 C 132.686 193.529,113.340 193.142,102.930 193.732 M271.484 193.697 C 268.945 193.867,267.954 194.061,268.345 194.313 C 269.219 194.875,298.827 194.794,299.805 194.227 C 300.524 193.809,300.494 193.773,299.414 193.760 C 298.770 193.752,293.057 193.679,286.719 193.597 C 280.381 193.515,273.525 193.560,271.484 193.697 M273.722 196.941 C 273.095 197.328,274.365 199.021,276.532 200.684 C 278.554 202.236,279.213 202.313,278.203 200.879 C 277.786 200.288,277.073 199.068,276.618 198.168 C 275.798 196.549,274.943 196.186,273.722 196.941 M105.078 197.264 C 105.078 198.253,109.213 201.953,110.318 201.953 C 110.428 201.953,109.802 200.811,108.927 199.414 C 107.425 197.019,105.078 195.708,105.078 197.264 M123.920 199.629 C 121.249 202.199,121.169 202.324,122.553 201.765 C 124.550 200.958,128.355 196.832,127.051 196.887 C 126.890 196.894,125.481 198.128,123.920 199.629 M292.739 198.340 C 292.131 199.146,291.125 200.288,290.503 200.879 C 289.036 202.271,289.669 202.254,291.766 200.845 C 293.260 199.842,294.913 197.914,294.919 197.168 C 294.926 196.386,293.725 197.032,292.739 198.340 M141.738 199.316 C 142.266 199.845,149.134 200.153,150.781 199.723 C 152.575 199.254,150.421 198.884,145.723 198.856 C 142.145 198.834,141.348 198.926,141.738 199.316 M248.855 199.194 C 247.344 200.150,257.233 200.212,258.875 199.257 C 259.381 198.962,258.186 198.850,254.492 198.846 C 251.699 198.843,249.163 198.999,248.855 199.194 M195.372 205.033 C 193.240 206.384,196.858 207.565,201.820 207.138 C 204.261 206.928,205.636 205.526,204.012 204.902 C 203.114 204.558,195.950 204.667,195.372 205.033 M185.402 210.945 C 181.530 211.293,180.871 211.469,181.412 212.012 C 182.191 212.792,216.797 212.516,216.797 211.730 C 216.797 210.903,192.599 210.299,185.402 210.945 M189.336 215.918 C 190.004 217.749,192.355 220.818,194.029 222.047 C 196.626 223.952,197.022 223.778,195.577 221.368 C 194.894 220.230,193.910 218.384,193.390 217.266 C 192.396 215.131,188.587 213.864,189.336 215.918 M207.508 219.226 C 205.335 221.422,203.619 223.280,203.694 223.355 C 204.426 224.088,208.650 220.419,210.781 217.198 C 212.580 214.480,211.609 215.082,207.508 219.226 M293.618 221.387 C 291.988 226.091,292.343 230.442,294.172 228.183 C 295.177 226.942,295.714 223.870,295.440 220.933 C 295.132 217.637,294.896 217.696,293.618 221.387 M103.480 220.996 C 102.399 223.778,102.229 227.457,103.173 227.646 C 104.184 227.848,105.078 225.044,105.078 221.672 C 105.078 218.167,104.650 217.986,103.480 220.996 M263.508 231.055 C 260.654 237.667,260.067 243.396,262.391 241.951 C 264.368 240.722,265.564 234.589,264.553 230.859 L 264.183 229.492 263.508 231.055 M132.914 233.089 C 130.702 238.730,130.452 242.478,132.313 242.113 C 133.639 241.854,134.547 239.089,134.706 234.831 C 134.901 229.617,134.448 229.178,132.914 233.089 M199.099 246.973 C 198.982 247.456,198.260 249.609,197.494 251.758 C 195.307 257.889,195.716 262.530,198.234 260.164 C 199.660 258.824,200.391 256.177,200.386 252.372 C 200.380 247.251,199.708 244.436,199.099 246.973 " stroke="none" fill="#f6d6a4" fill-rule="evenodd"></path><path id="path1" d="M198.911 90.143 C 198.758 90.516,198.633 92.886,198.633 95.410 C 198.633 97.934,198.586 99.999,198.530 99.999 C 198.473 100.000,198.122 99.842,197.749 99.649 C 192.212 96.783,187.986 95.844,186.402 97.127 C 184.955 98.300,184.785 100.225,184.775 115.527 L 184.766 130.078 182.715 130.098 C 175.982 130.164,173.087 131.283,174.211 133.385 C 174.546 134.010,175.077 134.375,175.652 134.375 C 176.153 134.375,176.563 134.551,176.563 134.766 C 176.563 134.980,176.782 135.159,177.051 135.162 C 177.988 135.173,184.109 142.842,183.704 143.497 C 183.577 143.703,183.652 143.760,183.872 143.624 C 184.378 143.311,185.649 144.680,185.255 145.114 C 185.093 145.292,185.148 145.331,185.378 145.201 C 185.607 145.071,186.573 145.482,187.526 146.114 C 189.154 147.194,191.735 148.241,193.811 148.662 C 197.145 149.338,197.361 149.558,194.531 149.394 C 192.920 149.301,191.162 149.135,190.625 149.026 C 188.871 148.669,185.138 147.414,185.313 147.240 C 186.002 146.554,178.157 147.581,177.138 148.311 C 174.104 150.484,172.434 153.927,173.129 156.576 C 173.336 157.364,173.527 158.307,173.555 158.673 C 173.582 159.039,173.666 159.277,173.740 159.203 C 173.969 158.974,175.807 160.970,175.631 161.256 C 175.454 161.542,176.541 161.701,179.190 161.775 C 182.356 161.863,184.396 159.095,182.958 156.662 C 181.593 154.350,179.910 154.865,180.326 157.467 C 180.579 159.051,180.451 159.172,178.711 158.994 C 173.970 158.509,175.933 150.391,180.791 150.391 C 183.765 150.391,188.470 153.331,188.191 155.014 C 188.133 155.362,188.293 155.650,188.546 155.655 C 188.799 155.660,189.553 156.420,190.222 157.343 C 191.276 158.798,192.354 159.651,195.511 161.532 C 196.105 161.886,196.055 161.994,195.063 162.494 C 192.293 163.891,191.703 164.504,191.905 165.779 C 192.061 166.764,191.886 167.172,190.971 167.950 C 188.919 169.695,189.727 174.609,192.066 174.609 C 192.348 174.609,192.578 174.948,192.578 175.362 C 192.578 177.236,191.679 182.298,191.172 183.279 C 190.612 184.361,190.796 186.056,191.800 189.063 C 191.979 189.600,192.218 191.006,192.330 192.188 L 192.535 194.336 191.992 192.408 C 191.694 191.347,191.555 190.309,191.684 190.101 C 191.813 189.893,191.715 189.848,191.467 190.002 C 191.162 190.190,191.006 189.860,190.985 188.988 C 190.968 188.277,190.863 187.922,190.751 188.200 C 190.628 188.507,190.128 188.042,189.476 187.013 C 184.444 179.079,173.229 177.768,165.382 184.198 C 164.497 184.923,163.662 185.436,163.527 185.337 C 163.392 185.237,163.364 185.269,163.466 185.406 C 163.632 185.631,161.553 188.572,159.984 190.332 C 159.649 190.708,159.466 191.016,159.578 191.016 C 159.796 191.016,155.343 199.685,154.524 200.854 C 154.253 201.241,153.945 201.471,153.839 201.365 C 153.733 201.259,153.646 201.397,153.646 201.672 C 153.646 202.513,152.284 204.306,151.850 204.038 C 151.620 203.896,151.557 203.973,151.706 204.214 C 152.308 205.187,145.781 211.365,141.797 213.594 C 135.135 217.322,127.673 217.617,123.356 214.325 C 121.375 212.814,121.283 212.271,122.769 210.854 C 124.399 209.300,124.155 207.505,122.169 206.445 C 120.553 205.583,120.358 205.271,121.387 205.193 C 124.073 204.989,128.158 202.625,130.090 200.157 C 130.746 199.319,131.526 198.339,131.822 197.980 C 132.119 197.621,132.557 196.963,132.795 196.517 C 133.252 195.663,136.077 194.020,136.449 194.391 C 136.811 194.754,136.243 192.809,135.833 192.285 C 135.574 191.954,134.226 191.797,131.647 191.797 C 129.555 191.797,127.028 191.685,126.031 191.548 L 124.219 191.300 124.219 182.787 C 124.219 172.717,124.350 173.047,120.335 173.047 L 117.679 173.047 117.414 170.012 C 117.160 167.100,116.426 164.673,116.412 166.699 C 116.409 167.183,116.230 167.578,116.016 167.578 C 115.792 167.578,115.625 168.750,115.625 170.313 L 115.625 173.047 112.951 173.047 C 108.899 173.047,109.001 172.798,108.954 182.896 L 108.915 191.325 104.750 191.569 C 102.460 191.703,99.673 191.780,98.557 191.739 C 95.089 191.612,94.186 193.532,96.979 195.092 C 97.788 195.544,99.269 196.965,100.270 198.250 C 101.271 199.535,102.274 200.708,102.500 200.858 C 102.744 201.021,102.252 201.737,101.279 202.635 C 97.966 205.694,97.914 209.894,101.155 212.621 C 103.595 214.674,108.203 213.233,108.203 210.417 C 108.203 207.814,105.004 206.755,104.760 209.277 C 104.585 211.092,103.124 211.061,102.249 209.225 C 101.603 207.871,101.586 207.489,102.102 205.953 C 102.460 204.888,104.128 203.976,105.469 204.112 C 107.551 204.324,112.715 205.577,113.086 205.961 C 113.350 206.234,113.319 206.275,112.988 206.089 C 112.701 205.927,112.500 206.034,112.500 206.349 C 112.500 206.643,111.993 207.259,111.373 207.717 C 110.371 208.459,109.283 211.673,110.233 211.085 C 110.818 210.724,114.266 214.646,114.360 215.778 C 114.410 216.377,114.846 217.423,115.329 218.102 C 115.812 218.781,116.146 219.387,116.071 219.450 C 115.670 219.787,116.990 221.821,117.996 222.415 C 118.637 222.794,119.136 223.311,119.105 223.564 C 118.965 224.696,119.174 225.781,119.531 225.781 C 119.966 225.781,121.680 227.391,121.680 227.799 C 121.680 228.432,123.578 230.541,124.443 230.870 C 124.967 231.070,125.374 231.369,125.347 231.534 C 125.128 232.883,126.629 234.375,128.205 234.375 C 128.877 234.375,129.313 234.261,129.173 234.121 C 129.033 233.981,129.189 233.668,129.520 233.426 C 130.041 233.046,129.957 232.830,128.899 231.825 C 128.227 231.187,127.206 230.142,126.631 229.505 C 126.056 228.867,125.116 227.856,124.542 227.259 C 123.967 226.661,123.641 226.172,123.816 226.172 C 123.992 226.172,124.233 225.917,124.352 225.606 C 124.497 225.230,124.382 225.112,124.011 225.254 C 123.427 225.478,120.033 222.356,120.222 221.768 C 120.279 221.589,119.708 220.511,118.952 219.372 C 118.197 218.234,117.577 217.144,117.576 216.952 C 117.574 216.759,117.307 216.074,116.981 215.430 C 116.458 214.396,116.548 214.442,117.750 215.820 C 118.499 216.680,119.118 217.690,119.126 218.066 C 119.134 218.442,119.327 218.750,119.554 218.750 C 119.782 218.750,119.863 218.580,119.734 218.372 C 119.606 218.164,120.426 218.603,121.558 219.348 C 122.689 220.093,123.761 220.703,123.940 220.703 C 124.119 220.703,124.139 220.906,123.986 221.154 C 123.821 221.421,123.878 221.500,124.127 221.346 C 124.357 221.204,125.564 221.352,126.808 221.676 C 128.052 222.000,130.220 222.278,131.625 222.293 C 133.030 222.308,133.916 222.440,133.594 222.586 C 132.512 223.076,132.714 225.391,133.838 225.391 C 134.159 225.391,134.312 225.566,134.180 225.781 C 134.047 225.996,134.152 226.172,134.412 226.172 C 134.746 226.172,134.715 226.375,134.311 226.855 C 131.654 230.009,128.985 236.854,128.865 240.820 C 128.624 248.780,135.999 252.685,140.300 246.875 C 142.883 243.385,141.362 235.767,136.686 228.764 C 135.126 226.428,134.873 225.781,135.521 225.781 C 136.120 225.781,136.348 224.478,135.975 223.179 C 135.633 221.986,135.657 221.957,137.161 221.717 C 139.111 221.405,143.388 219.708,145.828 218.279 C 146.864 217.672,147.919 217.294,148.172 217.439 C 148.425 217.585,148.503 217.560,148.345 217.385 C 148.186 217.210,148.770 216.542,149.643 215.901 L 151.229 214.734 152.336 216.078 C 152.946 216.818,154.160 217.919,155.035 218.525 C 155.911 219.132,156.544 219.762,156.443 219.926 C 156.341 220.090,156.554 220.464,156.915 220.757 C 157.367 221.123,157.480 221.137,157.278 220.801 C 156.846 220.081,157.192 220.183,159.874 221.562 C 161.211 222.249,162.437 222.777,162.598 222.734 C 163.499 222.495,162.668 224.220,161.312 225.402 C 160.442 226.160,159.701 227.163,159.666 227.631 C 159.631 228.099,159.529 228.409,159.439 228.319 C 159.349 228.229,158.793 228.406,158.203 228.711 C 157.613 229.016,156.992 229.141,156.823 228.988 C 156.654 228.836,156.636 228.922,156.784 229.180 C 156.938 229.447,156.720 229.827,156.275 230.064 C 155.848 230.293,155.550 230.698,155.615 230.963 C 155.679 231.228,155.664 231.332,155.581 231.194 C 155.304 230.728,153.722 231.338,152.269 232.470 C 151.203 233.300,150.399 233.594,149.187 233.594 C 148.090 233.594,147.385 233.815,147.059 234.262 C 146.644 234.829,146.413 234.858,145.532 234.457 C 144.009 233.763,143.206 233.874,142.315 234.898 C 140.811 236.628,143.269 238.732,145.140 237.317 C 145.935 236.716,147.450 236.495,147.121 237.028 C 147.016 237.198,147.518 237.268,148.238 237.184 C 149.684 237.015,151.172 235.856,151.172 234.898 C 151.172 234.394,151.280 234.369,151.754 234.762 C 152.746 235.586,154.944 234.921,155.518 233.623 C 155.806 232.974,156.227 232.587,156.523 232.701 C 158.076 233.297,161.132 230.169,160.305 228.830 C 160.201 228.662,160.401 228.634,160.750 228.768 C 161.115 228.908,161.883 228.643,162.559 228.143 C 163.978 227.094,164.035 227.139,164.276 229.478 C 164.506 231.706,165.793 234.748,166.164 233.942 C 166.302 233.643,166.334 233.821,166.236 234.337 C 166.028 235.430,166.862 237.227,167.920 237.969 C 168.325 238.253,168.723 238.834,168.803 239.262 C 168.884 239.689,169.344 240.213,169.827 240.425 C 170.309 240.637,170.703 241.041,170.703 241.322 C 170.703 241.956,172.593 243.750,173.260 243.750 C 173.530 243.750,174.384 244.384,175.159 245.159 C 176.299 246.299,176.760 246.520,177.574 246.315 C 178.301 246.133,178.501 246.192,178.293 246.529 C 178.117 246.814,178.170 246.893,178.430 246.733 C 178.663 246.588,179.571 246.756,180.445 247.107 C 181.876 247.679,182.127 247.683,182.945 247.148 C 183.533 246.762,184.048 246.676,184.407 246.903 C 185.612 247.666,187.446 247.308,188.308 246.140 C 188.875 245.375,189.378 245.078,189.885 245.210 C 191.035 245.511,192.703 244.638,193.439 243.351 C 193.841 242.649,194.425 242.188,194.913 242.188 C 195.425 242.188,195.864 241.815,196.108 241.173 C 196.320 240.615,196.841 240.068,197.266 239.957 C 197.691 239.846,197.930 239.555,197.798 239.311 C 197.666 239.067,198.039 239.365,198.628 239.973 L 199.700 241.079 199.003 242.707 C 198.619 243.603,197.628 245.799,196.799 247.587 C 191.627 258.750,192.481 267.330,198.897 268.649 C 206.122 270.134,209.132 260.931,204.614 251.172 C 204.166 250.205,203.187 248.096,202.438 246.484 C 201.689 244.873,200.987 242.896,200.878 242.090 C 200.768 241.284,200.504 240.625,200.291 240.625 C 200.078 240.625,200.123 240.361,200.391 240.039 C 201.126 239.153,202.193 239.333,203.108 240.497 C 203.752 241.315,203.821 241.619,203.430 241.901 C 203.070 242.160,203.118 242.201,203.601 242.046 C 203.970 241.928,204.383 242.011,204.519 242.231 C 204.655 242.451,205.018 242.535,205.325 242.417 C 205.667 242.286,206.014 242.541,206.218 243.074 C 206.709 244.357,207.821 245.180,209.462 245.474 C 210.262 245.617,211.074 246.016,211.266 246.360 C 211.598 246.953,212.472 247.065,218.501 247.281 C 218.901 247.296,219.516 247.050,219.868 246.735 C 220.618 246.064,222.999 245.786,223.834 246.272 C 224.153 246.458,224.279 246.461,224.114 246.280 C 223.766 245.896,226.097 243.359,226.798 243.359 C 227.835 243.359,230.907 239.397,230.378 238.743 C 230.028 238.311,230.021 238.214,230.352 238.413 C 231.128 238.878,233.156 236.690,233.303 235.229 C 233.375 234.517,233.620 233.814,233.850 233.666 C 234.248 233.410,235.571 231.083,235.555 230.668 C 235.438 227.736,235.910 227.473,238.190 229.199 C 238.970 229.790,239.483 230.066,239.329 229.812 C 239.176 229.558,239.191 229.263,239.364 229.157 C 239.537 229.050,239.714 229.433,239.757 230.009 C 239.851 231.239,241.647 232.864,242.752 232.718 C 243.267 232.650,243.581 232.907,243.728 233.519 C 243.848 234.015,244.121 234.432,244.336 234.445 C 244.795 234.473,246.425 235.074,246.992 235.424 C 247.216 235.562,247.266 235.473,247.108 235.217 C 246.954 234.969,247.001 234.766,247.211 234.766 C 247.421 234.766,247.870 234.659,248.210 234.529 C 248.599 234.379,248.828 234.502,248.828 234.859 C 248.828 236.478,253.051 237.418,253.156 235.822 C 253.173 235.563,253.363 235.835,253.579 236.426 C 254.006 237.595,255.564 237.895,257.057 237.096 C 258.909 236.104,256.963 233.666,254.683 234.122 C 254.041 234.250,253.032 234.156,252.441 233.912 C 251.851 233.668,250.846 233.394,250.209 233.304 C 248.559 233.071,247.651 232.500,247.900 231.852 C 248.037 231.493,247.857 231.293,247.397 231.291 C 245.313 231.283,244.169 230.882,243.130 229.794 C 241.972 228.583,241.850 228.516,240.820 228.516 C 240.498 228.516,240.234 228.229,240.234 227.879 C 240.234 227.084,237.667 224.193,237.274 224.545 C 237.115 224.688,237.095 224.497,237.230 224.121 C 237.365 223.745,237.293 223.438,237.069 223.438 C 236.386 223.438,237.616 222.460,239.026 221.883 C 241.158 221.011,245.816 217.825,246.976 216.447 C 247.764 215.510,248.246 215.245,248.825 215.429 C 249.963 215.790,253.555 218.269,253.217 218.460 C 253.059 218.549,253.147 218.569,253.412 218.505 C 253.986 218.366,256.244 219.590,256.248 220.043 C 256.249 220.216,256.421 220.253,256.629 220.124 C 256.838 219.995,257.497 220.137,258.094 220.439 C 258.691 220.742,260.146 221.202,261.328 221.462 C 264.631 222.190,264.601 222.174,263.896 222.878 C 263.558 223.217,263.268 223.876,263.251 224.344 C 263.235 224.812,263.162 225.504,263.090 225.881 C 263.018 226.258,263.122 226.465,263.322 226.342 C 263.521 226.219,263.583 225.954,263.460 225.754 C 263.336 225.554,263.597 225.391,264.039 225.391 C 264.482 225.391,264.844 225.566,264.844 225.781 C 264.844 225.996,264.697 226.172,264.517 226.172 C 264.099 226.172,260.033 234.344,259.172 236.914 C 255.828 246.895,265.628 255.018,270.243 246.091 C 271.614 243.439,270.570 234.673,268.568 232.031 C 266.006 228.649,264.898 225.928,265.804 225.238 C 266.407 224.778,266.986 222.493,266.409 222.850 C 266.222 222.965,265.950 222.866,265.803 222.629 C 265.633 222.353,265.870 222.233,266.460 222.296 C 269.517 222.619,274.786 221.267,278.103 219.309 C 280.232 218.051,280.952 217.390,282.715 215.068 C 283.198 214.432,283.594 214.000,283.594 214.109 C 283.594 214.743,281.563 218.364,281.045 218.654 C 280.704 218.845,280.162 219.766,279.839 220.702 C 279.517 221.638,278.736 223.057,278.103 223.856 C 277.471 224.654,276.950 225.458,276.946 225.642 C 276.943 225.826,276.503 226.391,275.970 226.896 C 275.436 227.402,275.000 227.984,275.000 228.189 C 275.000 228.394,274.797 228.436,274.549 228.283 C 274.283 228.119,274.204 228.175,274.355 228.420 C 274.728 229.024,274.229 230.078,273.569 230.078 C 273.041 230.078,270.703 232.319,270.703 232.825 C 270.703 234.563,273.366 234.622,274.529 232.909 C 274.895 232.369,275.854 231.307,276.660 230.548 C 277.466 229.789,278.125 228.889,278.125 228.548 C 278.125 228.207,278.646 227.435,279.283 226.834 C 279.920 226.233,280.553 225.144,280.690 224.413 C 280.838 223.627,281.327 222.831,281.888 222.462 C 282.410 222.120,283.275 220.925,283.811 219.807 C 284.346 218.689,285.041 217.334,285.355 216.797 C 285.669 216.260,285.929 215.434,285.932 214.961 C 285.935 214.426,286.594 213.553,287.675 212.649 C 290.555 210.242,290.951 207.975,288.659 207.026 C 287.273 206.452,287.119 205.469,288.415 205.469 C 288.919 205.469,290.281 205.155,291.443 204.772 C 294.514 203.759,297.832 204.237,297.006 205.573 C 296.860 205.810,296.943 205.863,297.206 205.701 C 298.298 205.026,298.627 208.591,297.566 209.615 C 296.728 210.425,294.833 210.466,295.125 209.668 C 295.678 208.161,293.270 207.381,292.358 208.772 C 291.096 210.698,293.314 213.672,296.012 213.672 C 300.950 213.672,303.091 206.191,299.157 202.680 C 298.401 202.004,298.074 201.429,298.260 201.101 C 298.495 200.687,298.449 200.682,298.026 201.074 C 296.829 202.185,296.831 201.461,298.028 200.293 C 298.743 199.595,299.745 198.366,300.253 197.562 C 300.762 196.758,301.888 195.651,302.756 195.104 C 306.267 192.887,305.095 191.797,299.199 191.797 C 296.906 191.797,294.215 191.685,293.219 191.548 L 291.406 191.300 291.406 182.787 C 291.406 172.763,291.515 173.047,287.667 173.047 L 285.156 173.047 285.152 171.387 C 285.138 166.166,283.799 165.062,283.375 169.922 L 283.102 173.047 280.076 173.047 C 275.932 173.047,276.125 172.568,276.156 182.780 L 276.182 191.406 275.298 191.414 C 268.638 191.469,263.811 192.042,263.516 192.812 C 263.253 193.496,263.896 194.922,264.467 194.922 C 264.674 194.922,264.976 194.934,265.137 194.950 C 265.670 195.000,266.881 196.261,268.485 198.438 C 271.404 202.398,273.916 204.177,277.549 204.859 C 279.761 205.274,279.899 205.466,278.569 206.274 C 276.309 207.649,275.913 208.766,277.123 210.353 C 277.696 211.104,278.315 211.719,278.499 211.719 C 278.683 211.719,278.744 212.058,278.636 212.474 C 278.286 213.812,273.677 216.341,272.448 215.869 C 272.095 215.734,271.936 215.798,272.073 216.020 C 272.526 216.753,265.171 216.477,262.835 215.673 C 259.619 214.567,257.355 213.315,257.664 212.815 C 257.824 212.556,257.757 212.488,257.497 212.649 C 255.511 213.876,246.047 203.469,242.620 196.289 C 241.209 193.333,239.121 189.913,237.136 187.305 C 236.154 186.016,235.396 184.830,235.449 184.668 C 235.503 184.507,235.415 184.417,235.254 184.468 C 235.093 184.519,234.134 183.989,233.124 183.290 C 226.916 178.996,218.659 179.096,213.613 183.527 C 212.848 184.198,212.080 184.620,211.908 184.464 C 211.735 184.308,211.728 184.412,211.892 184.697 C 212.071 185.006,211.886 185.557,211.435 186.064 C 210.207 187.445,208.941 189.890,208.577 191.584 L 208.238 193.164 208.392 191.602 C 208.476 190.742,208.663 189.154,208.806 188.072 C 209.003 186.588,208.860 185.437,208.224 183.385 C 207.514 181.096,207.101 178.650,206.878 175.415 C 206.850 175.005,207.113 174.843,207.680 174.921 C 208.145 174.985,208.655 174.826,208.815 174.568 C 209.014 174.245,208.934 174.197,208.556 174.417 C 208.255 174.592,208.403 174.300,208.887 173.768 C 210.172 172.354,210.107 169.606,208.749 167.993 C 208.131 167.258,207.829 166.537,207.977 166.150 C 208.482 164.834,206.501 163.132,203.125 161.980 C 202.719 161.842,202.780 161.771,203.325 161.750 C 204.882 161.688,207.991 159.165,210.467 155.953 C 211.835 154.178,213.562 152.262,214.306 151.695 C 219.378 147.826,227.054 153.384,223.006 157.994 C 221.181 160.073,219.616 159.729,219.870 157.305 C 220.082 155.288,218.544 154.621,217.285 156.184 C 215.076 158.925,218.457 162.744,222.200 161.737 C 228.522 160.034,228.458 150.832,222.103 148.021 C 220.295 147.221,220.030 147.203,213.221 147.416 C 212.436 147.441,211.859 147.567,211.939 147.696 C 212.198 148.116,208.749 149.079,205.664 149.447 C 203.860 149.663,203.302 149.335,204.945 149.024 C 205.340 148.949,205.708 148.852,205.762 148.809 C 205.815 148.766,205.991 148.708,206.152 148.680 C 208.612 148.259,212.266 146.292,214.220 144.339 C 214.732 143.826,215.273 143.528,215.421 143.676 C 215.569 143.824,215.635 143.770,215.568 143.555 C 215.392 142.995,220.755 135.923,221.163 136.176 C 221.351 136.291,221.455 136.159,221.396 135.882 C 221.337 135.604,221.872 135.080,222.586 134.717 C 225.476 133.245,226.119 131.646,224.150 130.831 C 223.087 130.391,222.022 130.296,216.546 130.152 L 213.755 130.078 213.707 122.845 C 213.669 117.196,213.783 115.371,214.228 114.510 C 214.881 113.248,214.926 111.505,214.516 103.320 C 214.350 99.983,214.017 97.086,213.743 96.591 C 212.265 93.912,207.928 94.438,203.141 97.877 C 200.581 99.716,200.570 99.705,200.712 95.452 C 200.876 90.537,199.914 87.702,198.911 90.143 M210.459 103.113 C 210.581 110.320,210.305 111.328,208.208 111.328 C 206.808 111.328,206.380 110.626,206.046 107.782 C 205.290 101.357,204.647 104.880,204.176 118.027 L 203.761 129.609 196.590 129.892 C 192.646 130.047,189.362 130.109,189.292 130.029 C 189.223 129.948,189.072 126.587,188.959 122.559 L 188.752 115.234 190.395 115.234 C 193.496 115.234,193.953 114.121,193.278 108.203 L 192.811 104.102 192.399 107.813 C 191.921 112.128,191.748 112.500,190.220 112.500 C 188.358 112.500,188.011 111.445,187.754 105.017 C 187.454 97.494,187.938 97.241,196.210 100.602 C 199.256 101.840,199.604 101.820,202.476 100.230 C 206.839 97.813,209.565 96.500,209.961 96.623 C 210.195 96.695,210.395 99.304,210.459 103.113 M220.381 133.065 C 221.250 133.625,216.657 133.827,201.015 133.917 C 186.041 134.002,178.125 133.741,178.125 133.161 C 178.125 132.452,219.285 132.357,220.381 133.065 M196.856 136.816 C 196.795 138.383,195.797 144.845,195.555 145.237 C 194.813 146.437,194.192 145.311,193.122 140.820 C 192.764 139.316,192.319 137.919,192.134 137.715 C 191.224 136.712,191.834 136.328,194.336 136.328 C 196.117 136.328,196.869 136.474,196.856 136.816 M214.453 136.933 C 214.453 138.241,210.656 143.574,208.895 144.739 C 206.701 146.191,206.717 145.778,208.972 142.722 C 212.580 137.832,214.453 135.854,214.453 136.933 M186.984 137.988 C 187.624 138.698,189.924 142.144,191.547 144.824 C 192.173 145.858,191.078 145.238,189.345 143.578 C 187.369 141.685,184.769 137.109,185.668 137.109 C 185.956 137.109,186.549 137.505,186.984 137.988 M198.364 155.179 C 198.549 157.417,195.629 157.844,195.081 155.659 C 194.670 154.020,195.133 153.454,196.774 153.590 C 198.164 153.704,198.249 153.789,198.364 155.179 M177.638 164.241 C 174.825 167.632,174.285 171.034,176.212 173.229 C 179.468 176.937,184.750 171.995,182.308 167.525 C 182.030 167.017,181.424 165.999,180.961 165.262 C 180.498 164.525,180.225 163.751,180.354 163.541 C 180.484 163.332,180.399 163.278,180.165 163.423 C 179.932 163.567,179.631 163.506,179.496 163.288 C 179.118 162.677,178.800 162.840,177.638 164.241 M219.643 164.160 C 216.516 167.574,216.067 172.376,218.729 173.949 C 222.839 176.377,226.078 171.622,223.619 166.771 C 221.894 163.365,220.943 162.741,219.643 164.160 M179.437 165.918 C 179.822 168.246,179.732 169.294,179.066 170.244 C 177.599 172.340,176.787 169.257,177.983 166.126 C 178.769 164.069,179.123 164.018,179.437 165.918 M203.132 165.043 C 204.148 165.671,202.752 166.016,199.196 166.016 C 195.290 166.016,194.397 165.655,196.387 164.882 C 197.462 164.464,202.385 164.582,203.132 165.043 M221.457 167.988 C 221.484 170.161,221.042 171.094,219.985 171.094 C 219.315 171.094,219.534 167.382,220.318 165.430 C 220.949 163.859,221.418 164.912,221.457 167.988 M203.906 168.337 C 203.906 169.896,195.776 170.720,194.360 169.304 C 194.021 168.965,193.843 168.525,193.965 168.328 C 194.260 167.850,203.906 167.859,203.906 168.337 M196.484 178.972 C 196.484 183.792,195.889 188.672,195.301 188.672 C 194.372 188.672,194.416 176.674,195.352 174.926 C 196.198 173.345,196.484 174.368,196.484 178.972 M116.016 182.813 L 116.016 191.016 114.258 191.016 L 112.500 191.016 112.500 182.813 L 112.500 174.609 114.258 174.609 L 116.016 174.609 116.016 182.813 M282.813 182.813 L 282.813 191.016 281.250 191.016 L 279.688 191.016 279.688 182.813 L 279.688 174.609 281.250 174.609 L 282.813 174.609 282.813 182.813 M149.468 176.196 C 149.331 176.881,149.219 178.123,149.219 178.955 L 149.219 180.469 146.889 180.469 C 143.645 180.469,143.446 181.167,143.380 192.810 L 143.359 196.361 140.734 196.446 C 136.514 196.583,135.522 198.493,139.018 199.751 C 140.679 200.348,141.011 200.655,141.567 202.113 C 141.919 203.035,142.637 204.192,143.162 204.685 C 143.687 205.179,144.047 205.695,143.962 205.832 C 143.877 205.970,144.102 206.087,144.462 206.093 C 144.822 206.099,145.757 206.229,146.539 206.382 C 147.870 206.642,151.172 204.522,151.172 203.407 C 151.172 203.265,151.991 201.884,152.991 200.337 C 155.838 195.936,156.347 193.837,156.163 187.240 C 155.982 180.712,155.866 180.469,152.936 180.469 L 150.890 180.469 150.673 178.080 C 150.419 175.279,149.834 174.365,149.468 176.196 M249.896 176.025 C 249.764 176.238,249.537 177.310,249.392 178.407 L 249.127 180.402 246.927 180.613 C 245.717 180.729,244.551 180.861,244.336 180.907 C 243.912 180.997,243.875 191.931,244.290 194.526 C 244.649 196.770,245.868 199.347,247.619 201.562 C 248.643 202.858,249.101 203.774,248.944 204.212 C 248.812 204.581,248.851 204.749,249.032 204.584 C 249.212 204.420,249.847 204.753,250.442 205.323 C 251.080 205.934,251.975 206.363,252.618 206.367 C 254.172 206.377,256.245 206.115,256.061 205.931 C 255.976 205.846,256.263 205.399,256.698 204.939 C 257.134 204.478,257.822 203.486,258.228 202.734 C 259.331 200.694,259.842 200.166,261.133 199.740 C 264.033 198.781,263.568 196.716,260.431 196.618 C 256.174 196.483,256.680 197.505,256.659 189.005 C 256.638 180.277,256.714 180.469,253.272 180.469 L 250.781 180.469 250.754 178.809 C 250.723 176.944,250.259 175.438,249.896 176.025 M149.219 189.063 L 149.219 196.094 148.096 196.094 C 146.630 196.094,146.484 195.350,146.484 187.842 L 146.484 182.031 147.852 182.031 L 149.219 182.031 149.219 189.063 M249.923 187.500 C 250.083 194.618,249.855 196.094,248.597 196.094 C 247.343 196.094,247.359 196.170,247.111 188.823 C 246.879 181.969,246.886 181.941,248.619 182.110 L 249.805 182.227 249.923 187.500 M179.246 185.763 C 180.371 186.097,181.388 186.624,181.507 186.933 C 181.625 187.242,181.858 187.412,182.024 187.309 C 183.278 186.534,187.058 192.692,187.176 195.701 C 187.300 198.860,183.846 200.677,181.243 198.823 C 178.895 197.152,179.517 194.215,182.462 193.058 C 184.377 192.305,184.519 191.109,182.813 190.101 C 182.168 189.720,181.641 189.271,181.641 189.102 C 181.641 188.545,178.097 189.322,177.027 190.113 C 174.422 192.039,173.283 197.058,174.789 199.970 C 175.138 200.644,175.314 201.370,175.182 201.584 C 175.050 201.798,175.090 201.924,175.271 201.865 C 175.453 201.806,176.037 202.169,176.570 202.671 C 179.039 204.997,182.775 205.887,186.208 204.967 L 188.236 204.423 187.380 205.517 C 186.347 206.836,184.151 207.580,181.250 207.592 C 178.568 207.604,176.077 207.110,176.377 206.625 C 176.501 206.424,176.363 206.351,176.070 206.463 C 173.171 207.576,166.768 199.746,166.746 195.060 C 166.727 191.103,170.129 185.882,172.348 186.463 C 172.733 186.564,172.954 186.493,172.838 186.306 C 172.224 185.313,176.508 184.950,179.246 185.763 M227.660 186.486 C 235.792 190.607,234.476 201.576,225.295 206.186 C 221.161 208.262,214.868 208.095,213.681 205.877 C 213.093 204.777,213.146 204.738,214.746 205.110 C 222.221 206.844,228.445 199.330,225.048 192.672 C 224.610 191.814,224.333 191.003,224.431 190.869 C 224.529 190.735,224.500 190.705,224.366 190.803 C 224.232 190.902,223.573 190.569,222.901 190.064 C 221.969 189.363,217.908 188.351,218.532 188.974 C 218.599 189.042,218.159 189.593,217.553 190.199 C 216.148 191.604,216.386 192.556,218.374 193.483 C 219.589 194.049,219.947 194.463,220.147 195.531 C 220.433 197.055,220.121 198.216,219.524 197.847 C 219.303 197.710,219.170 197.819,219.229 198.089 C 219.620 199.881,214.760 199.761,213.491 197.949 C 211.755 195.471,215.031 186.753,217.195 188.090 C 217.511 188.286,217.616 188.201,217.497 187.847 C 217.290 187.232,219.116 185.974,220.898 185.503 C 222.756 185.012,225.555 185.419,227.660 186.486 M201.294 192.017 C 201.880 193.212,202.240 194.399,202.094 194.654 C 201.947 194.909,201.969 194.990,202.141 194.834 C 202.517 194.495,205.897 199.232,205.610 199.696 C 205.501 199.874,205.577 199.971,205.781 199.912 C 205.984 199.853,206.776 200.464,207.541 201.270 C 209.227 203.045,209.130 203.061,205.961 201.517 C 204.166 200.642,203.017 199.734,201.884 198.294 C 199.904 195.779,200.096 195.787,198.242 198.136 C 196.785 199.982,194.001 201.900,191.848 202.541 C 190.994 202.795,191.023 202.705,192.219 201.391 C 194.393 199.002,196.204 196.414,198.047 193.063 C 200.143 189.252,199.965 189.309,201.294 192.017 M130.273 193.720 C 136.470 194.316,130.376 194.726,115.430 194.719 C 101.030 194.712,95.731 194.360,100.586 193.734 C 103.193 193.398,126.811 193.386,130.273 193.720 M298.019 193.620 C 307.761 194.379,286.577 195.339,273.564 194.730 C 267.877 194.463,265.855 193.977,269.043 193.644 C 271.627 193.374,294.609 193.355,298.019 193.620 M108.589 198.625 C 109.262 199.802,109.979 200.867,110.180 200.991 C 110.723 201.327,110.625 201.953,110.031 201.953 C 108.852 201.953,104.688 197.936,104.688 196.799 C 104.688 195.343,107.451 196.636,108.589 198.625 M127.000 197.982 C 125.156 200.570,122.476 202.531,121.165 202.250 C 120.668 202.143,120.793 201.955,121.680 201.475 C 122.324 201.127,123.804 199.869,124.969 198.681 C 127.116 196.490,128.369 196.058,127.000 197.982 M276.300 197.363 C 278.470 200.914,278.928 201.953,278.322 201.953 C 277.598 201.953,273.047 197.640,273.047 196.953 C 273.047 196.063,275.711 196.399,276.300 197.363 M295.087 196.826 C 295.421 197.366,293.180 200.196,291.690 201.117 C 289.296 202.597,289.337 202.018,291.824 199.219 C 294.242 196.498,294.684 196.174,295.087 196.826 M151.367 199.200 C 152.027 199.467,151.918 199.561,150.670 199.804 C 148.619 200.204,142.159 199.866,141.211 199.310 C 140.281 198.764,150.031 198.658,151.367 199.200 M258.398 199.425 C 256.794 199.954,250.492 200.173,248.930 199.755 C 246.805 199.185,248.920 198.831,254.222 198.869 C 259.532 198.907,259.844 198.949,258.398 199.425 M163.516 201.814 C 164.012 203.036,164.310 204.227,164.178 204.460 C 164.046 204.692,164.082 204.752,164.259 204.591 C 164.436 204.431,164.909 204.841,165.312 205.502 C 166.539 207.520,168.836 209.773,170.963 211.046 L 172.986 212.255 172.053 214.096 C 170.955 216.264,168.754 218.204,166.687 218.827 C 164.707 219.423,164.410 219.041,164.286 215.731 C 164.230 214.236,164.080 212.845,163.954 212.640 C 163.827 212.435,163.867 212.036,164.042 211.753 C 164.223 211.459,164.135 210.805,163.837 210.229 C 163.473 209.529,163.436 209.073,163.715 208.737 C 163.978 208.420,163.987 208.009,163.739 207.545 C 163.532 207.155,163.393 206.014,163.432 205.010 C 163.470 204.006,163.383 203.257,163.239 203.346 C 163.094 203.436,162.860 202.851,162.717 202.047 C 162.575 201.244,162.358 200.234,162.235 199.805 C 161.818 198.342,162.609 199.584,163.516 201.814 M236.930 202.912 C 236.780 204.318,236.525 205.469,236.365 205.469 C 236.205 205.469,236.108 206.450,236.150 207.649 C 236.212 209.420,236.071 209.982,235.398 210.636 C 234.943 211.080,234.779 211.326,235.035 211.182 C 235.730 210.791,236.268 212.064,235.902 213.235 C 235.727 213.798,235.443 215.313,235.272 216.602 C 234.679 221.070,226.953 217.362,226.953 212.609 C 226.953 212.375,227.727 211.730,228.673 211.176 C 231.875 209.299,235.816 204.241,236.558 201.056 C 236.998 199.166,237.216 200.248,236.930 202.912 M240.314 205.006 C 240.708 205.718,240.912 206.492,240.767 206.726 C 240.614 206.974,240.685 207.041,240.936 206.885 C 241.448 206.569,242.284 207.947,241.881 208.445 C 241.727 208.634,241.754 208.666,241.940 208.516 C 242.282 208.240,245.703 212.141,245.703 212.808 C 245.703 213.371,241.701 217.015,240.271 217.754 C 238.332 218.757,237.365 218.869,237.709 218.051 C 237.863 217.683,237.961 216.738,237.926 215.950 C 237.891 215.161,238.033 214.411,238.242 214.282 C 238.450 214.154,238.517 213.409,238.390 212.627 C 238.231 211.650,238.293 211.289,238.586 211.471 C 238.872 211.647,238.947 211.376,238.812 210.652 C 238.269 207.740,238.455 200.802,239.037 202.284 C 239.345 203.069,239.919 204.294,240.314 205.006 M161.189 203.118 C 161.110 204.188,160.840 205.310,160.591 205.611 C 160.237 206.038,160.272 206.211,160.749 206.394 C 161.240 206.582,161.275 206.790,160.927 207.441 C 160.604 208.044,160.611 208.395,160.951 208.806 C 161.283 209.206,161.299 209.679,161.007 210.516 C 160.712 211.361,160.726 211.713,161.059 211.824 C 161.309 211.908,161.550 212.577,161.593 213.312 C 161.751 216.019,162.129 218.108,162.552 218.617 C 162.871 219.002,162.870 219.141,162.548 219.141 C 162.307 219.141,162.109 218.965,162.109 218.750 C 162.109 218.535,161.839 218.359,161.508 218.359 C 158.645 218.359,153.189 212.879,154.695 211.517 C 155.862 210.460,159.602 204.720,160.364 202.816 C 161.215 200.689,161.365 200.744,161.189 203.118 M203.320 204.640 C 205.110 205.023,204.983 206.657,203.125 207.147 C 201.710 207.520,195.698 207.315,194.975 206.869 C 192.471 205.321,198.712 203.654,203.320 204.640 M212.049 210.921 C 216.694 211.259,217.593 211.444,217.079 211.958 C 216.339 212.698,181.758 212.749,181.022 212.012 C 179.761 210.749,199.923 210.040,212.049 210.921 M180.479 214.068 C 181.342 214.530,184.977 219.932,184.812 220.508 C 184.751 220.723,184.826 220.773,184.980 220.619 C 185.133 220.466,186.159 221.101,187.258 222.032 C 189.225 223.696,193.499 226.169,194.411 226.171 C 194.666 226.171,194.975 226.332,195.095 226.527 C 195.432 227.073,194.905 228.125,194.294 228.125 C 193.995 228.125,193.794 228.345,193.848 228.613 C 193.914 228.944,193.429 229.092,192.346 229.071 C 190.424 229.035,190.227 230.417,191.945 231.894 C 193.035 232.832,192.368 234.035,190.766 234.019 C 187.223 233.985,181.748 232.415,182.264 231.580 C 182.376 231.399,182.290 231.250,182.073 231.250 C 181.395 231.250,177.847 227.456,177.599 226.466 C 177.469 225.949,176.963 225.095,176.474 224.570 C 175.950 224.005,175.638 223.249,175.714 222.722 C 175.784 222.231,175.566 221.410,175.230 220.896 C 174.846 220.310,174.764 219.872,175.011 219.720 C 175.227 219.587,176.285 218.171,177.362 216.575 C 179.489 213.423,179.403 213.492,180.479 214.068 M222.130 215.527 C 222.718 216.548,223.619 217.946,224.132 218.634 L 225.065 219.885 224.251 220.758 C 223.804 221.239,223.438 222.104,223.438 222.682 C 223.438 223.716,222.606 224.819,222.161 224.375 C 222.036 224.250,221.985 224.471,222.048 224.867 C 222.189 225.757,221.112 227.935,219.762 229.492 C 219.203 230.137,218.647 230.972,218.526 231.348 C 218.405 231.724,217.989 232.031,217.600 232.031 C 217.211 232.031,216.675 232.293,216.410 232.613 C 216.144 232.933,215.786 233.107,215.614 233.001 C 215.442 232.895,215.242 232.986,215.169 233.204 C 215.096 233.423,214.246 233.667,213.280 233.746 C 212.314 233.826,211.084 234.004,210.547 234.142 C 209.283 234.466,206.944 233.104,207.277 232.237 C 207.402 231.909,207.658 231.641,207.844 231.641 C 208.031 231.641,208.464 231.098,208.807 230.434 C 209.765 228.582,207.825 227.395,205.830 228.613 C 205.155 229.025,204.949 228.991,204.506 228.395 C 203.819 227.469,203.998 226.402,204.868 226.232 C 205.341 226.140,205.465 226.252,205.259 226.585 C 205.062 226.904,205.117 226.975,205.415 226.791 C 205.666 226.636,205.771 226.345,205.647 226.145 C 205.524 225.945,205.618 225.781,205.858 225.781 C 208.234 225.781,213.920 221.222,216.633 217.140 C 218.302 214.630,219.296 213.764,220.589 213.697 C 220.849 213.683,221.542 214.507,222.130 215.527 M193.682 217.676 C 194.330 219.019,195.324 220.864,195.890 221.777 C 197.133 223.783,196.564 223.976,194.283 222.324 C 192.414 220.970,190.844 219.148,189.825 217.151 C 188.823 215.187,188.799 215.234,190.783 215.234 L 192.504 215.234 193.682 217.676 M211.448 216.431 C 209.193 220.255,205.712 223.438,203.786 223.438 C 203.111 223.438,210.940 215.285,211.643 215.256 C 212.018 215.240,211.966 215.553,211.448 216.431 M103.674 216.076 C 103.491 216.372,103.568 216.420,103.897 216.217 C 104.172 216.046,104.324 216.063,104.234 216.254 C 104.144 216.445,103.300 218.157,102.359 220.057 C 98.660 227.526,100.257 234.186,105.576 233.473 C 110.305 232.838,111.124 227.331,107.569 220.070 C 105.699 216.250,104.393 214.912,103.674 216.076 M294.437 216.309 C 289.365 222.025,289.281 232.749,294.300 233.761 C 300.166 234.943,301.706 226.594,297.034 218.945 C 296.247 217.656,295.596 216.382,295.588 216.113 C 295.567 215.433,295.150 215.504,294.437 216.309 M105.016 222.496 C 104.892 226.338,104.814 226.688,103.923 227.409 C 101.752 229.166,101.405 226.557,103.162 221.700 C 104.776 217.240,105.180 217.414,105.016 222.496 M295.452 219.824 C 296.276 224.806,294.408 230.580,292.706 228.315 C 291.927 227.279,292.226 224.816,293.571 221.191 C 294.761 217.985,295.107 217.733,295.452 219.824 M231.110 222.559 L 233.508 223.176 233.424 225.358 C 233.329 227.825,232.634 230.625,231.788 231.945 C 231.474 232.434,231.323 233.005,231.452 233.214 C 231.581 233.423,231.527 233.594,231.332 233.594 C 231.137 233.594,230.654 234.313,230.257 235.192 C 229.861 236.070,228.504 237.845,227.241 239.136 C 225.644 240.768,225.020 241.678,225.191 242.128 C 225.380 242.623,225.329 242.667,224.976 242.316 C 224.423 241.767,223.753 241.979,221.680 243.358 C 220.544 244.114,219.850 244.326,219.141 244.136 C 218.579 243.985,217.716 244.097,217.109 244.398 C 215.935 244.981,215.127 245.101,215.970 244.568 C 216.552 244.199,215.916 244.018,212.413 243.558 C 211.156 243.392,210.346 243.032,209.870 242.427 C 209.486 241.939,208.974 241.605,208.733 241.685 C 208.491 241.766,208.022 241.560,207.690 241.228 C 207.359 240.897,206.914 240.625,206.702 240.625 C 205.830 240.625,203.906 237.347,203.906 235.861 C 203.906 233.926,204.793 233.889,206.598 235.746 C 207.647 236.826,208.215 237.104,209.332 237.082 C 210.388 237.061,210.553 236.980,209.989 236.760 C 209.392 236.526,209.355 236.419,209.811 236.245 C 210.126 236.123,210.718 236.269,211.126 236.567 C 211.994 237.201,213.519 237.282,213.871 236.712 C 214.006 236.494,214.278 236.415,214.476 236.537 C 214.673 236.659,214.730 236.487,214.602 236.153 C 214.455 235.769,214.587 235.547,214.965 235.547 C 215.292 235.547,215.618 235.693,215.690 235.872 C 215.762 236.050,216.389 236.046,217.085 235.862 C 218.334 235.531,219.801 233.603,219.235 233.037 C 219.089 232.891,219.280 232.891,219.661 233.037 C 220.674 233.425,222.216 231.793,222.718 229.801 C 222.962 228.829,223.369 228.125,223.685 228.125 C 224.438 228.125,225.821 225.742,225.555 224.904 C 225.436 224.527,225.526 224.219,225.755 224.219 C 225.984 224.219,226.151 224.087,226.126 223.926 C 225.973 222.958,226.230 221.865,226.563 222.070 C 226.777 222.203,226.953 222.105,226.953 221.852 C 226.953 221.556,227.264 221.490,227.832 221.667 C 228.315 221.818,229.790 222.219,231.110 222.559 M172.070 222.266 C 171.938 222.480,172.019 222.656,172.251 222.656 C 172.483 222.656,172.871 223.090,173.112 223.621 C 173.354 224.151,173.730 224.475,173.947 224.341 C 174.192 224.189,174.253 224.438,174.106 224.997 C 173.842 226.009,175.948 229.481,176.587 229.087 C 176.788 228.962,176.954 229.266,176.955 229.762 C 176.956 230.258,177.474 231.216,178.106 231.890 C 178.737 232.564,179.147 233.223,179.015 233.355 C 178.884 233.486,179.138 233.594,179.581 233.594 C 180.023 233.594,180.477 233.834,180.590 234.128 C 180.906 234.951,184.298 236.732,184.520 236.192 C 184.621 235.945,184.723 236.094,184.747 236.523 C 184.788 237.263,184.819 237.267,185.318 236.610 C 185.741 236.052,185.887 236.022,186.055 236.462 C 186.391 237.337,188.268 237.633,189.042 236.932 C 189.411 236.599,189.858 236.459,190.036 236.620 C 190.214 236.782,190.241 236.706,190.095 236.453 C 189.950 236.199,190.010 235.881,190.228 235.746 C 190.446 235.611,190.625 235.753,190.625 236.062 C 190.625 236.963,191.507 237.446,192.480 237.077 C 192.964 236.894,193.359 236.555,193.359 236.324 C 193.359 236.094,193.705 235.534,194.127 235.081 C 194.549 234.628,194.779 234.064,194.638 233.828 C 194.497 233.592,194.679 233.640,195.042 233.935 C 196.196 234.870,195.617 237.679,193.858 239.682 C 192.952 240.714,189.207 243.359,188.653 243.359 C 188.423 243.359,188.332 243.516,188.450 243.707 C 188.568 243.898,188.043 243.970,187.284 243.868 C 186.501 243.762,185.657 243.887,185.332 244.157 C 184.797 244.601,182.940 244.539,180.574 243.997 C 180.027 243.872,179.737 243.970,179.793 244.262 C 179.963 245.140,178.937 244.725,178.043 243.555 C 177.472 242.806,176.725 242.338,175.977 242.258 C 175.332 242.189,174.736 241.938,174.652 241.701 C 174.567 241.463,173.952 240.679,173.284 239.959 C 172.617 239.239,171.587 238.129,170.996 237.493 C 170.405 236.856,169.922 236.096,169.922 235.803 C 169.922 235.510,169.458 234.769,168.890 234.157 C 168.323 233.545,168.037 232.985,168.254 232.913 C 168.488 232.835,168.363 232.218,167.948 231.405 C 166.733 229.021,166.336 227.601,166.303 225.507 C 166.284 224.390,166.125 223.565,165.947 223.675 C 165.770 223.785,165.625 223.696,165.625 223.478 C 165.625 223.260,166.284 222.969,167.090 222.831 C 167.896 222.693,169.082 222.437,169.727 222.263 C 171.397 221.811,172.351 221.812,172.070 222.266 M133.900 240.195 C 132.605 242.804,130.881 242.818,130.865 240.219 C 130.855 238.525,132.004 234.686,133.316 232.031 L 134.570 229.492 134.681 233.945 C 134.781 237.928,134.698 238.587,133.900 240.195 M264.808 234.766 C 264.827 238.628,264.178 240.962,262.757 242.138 C 260.960 243.625,260.317 239.707,261.690 235.632 C 264.067 228.582,264.775 228.385,264.808 234.766 M200.146 247.314 C 201.285 253.006,199.619 260.938,197.286 260.938 C 195.172 260.938,195.402 257.055,197.928 250.098 C 199.495 245.782,199.771 245.436,200.146 247.314 " stroke="none" fill="#090a0a" fill-rule="evenodd"></path><path id="path2" d="M187.591 101.563 C 187.591 102.314,187.671 102.622,187.769 102.246 C 187.868 101.870,187.868 101.255,187.769 100.879 C 187.671 100.503,187.591 100.811,187.591 101.563 M214.544 107.031 C 214.544 107.783,214.624 108.091,214.722 107.715 C 214.821 107.339,214.821 106.724,214.722 106.348 C 214.624 105.972,214.544 106.279,214.544 107.031 M214.950 111.328 C 214.950 112.295,215.026 112.690,215.119 112.207 C 215.213 111.724,215.213 110.933,215.119 110.449 C 215.026 109.966,214.950 110.361,214.950 111.328 M188.784 116.992 C 188.787 118.066,188.862 118.459,188.952 117.866 C 189.042 117.272,189.040 116.393,188.947 115.913 C 188.854 115.432,188.781 115.918,188.784 116.992 M203.997 117.578 C 203.997 118.330,204.077 118.638,204.176 118.262 C 204.274 117.886,204.274 117.271,204.176 116.895 C 204.077 116.519,203.997 116.826,203.997 117.578 M220.020 130.347 C 220.396 130.446,221.011 130.446,221.387 130.347 C 221.763 130.249,221.455 130.169,220.703 130.169 C 219.951 130.169,219.644 130.249,220.020 130.347 M194.922 149.286 C 194.922 149.464,195.449 149.609,196.094 149.609 C 196.738 149.609,197.266 149.541,197.266 149.458 C 197.266 149.375,196.738 149.230,196.094 149.135 C 195.449 149.041,194.922 149.109,194.922 149.286 M201.270 165.894 C 201.646 165.993,202.261 165.993,202.637 165.894 C 203.013 165.796,202.705 165.716,201.953 165.716 C 201.201 165.716,200.894 165.796,201.270 165.894 M115.897 166.560 C 115.737 166.967,115.699 167.391,115.811 167.504 C 116.167 167.860,116.481 167.276,116.332 166.534 C 116.195 165.855,116.174 165.856,115.897 166.560 M282.813 172.247 C 282.813 172.452,281.714 172.681,280.371 172.758 L 277.930 172.896 280.566 172.972 C 282.683 173.032,283.203 172.931,283.203 172.461 C 283.203 172.139,283.115 171.875,283.008 171.875 C 282.900 171.875,282.813 172.042,282.813 172.247 M285.156 172.751 C 285.156 172.914,286.255 173.026,287.598 173.002 C 290.236 172.953,289.980 172.766,287.012 172.575 C 285.991 172.509,285.156 172.588,285.156 172.751 M113.184 172.932 C 113.667 173.025,114.458 173.025,114.941 172.932 C 115.425 172.839,115.029 172.763,114.063 172.763 C 113.096 172.763,112.700 172.839,113.184 172.932 M149.377 175.150 C 149.250 175.483,149.236 175.981,149.346 176.257 C 149.457 176.532,149.562 176.327,149.579 175.801 C 149.613 174.743,150.183 175.086,150.520 176.367 C 150.647 176.848,150.699 176.710,150.656 176.007 C 150.579 174.751,149.745 174.192,149.377 175.150 M291.567 181.250 C 291.567 185.010,291.625 186.548,291.697 184.668 C 291.769 182.788,291.769 179.712,291.697 177.832 C 291.625 175.952,291.567 177.490,291.567 181.250 M108.743 180.273 C 108.744 182.852,108.807 183.855,108.883 182.504 C 108.960 181.153,108.959 179.044,108.882 177.817 C 108.805 176.590,108.742 177.695,108.743 180.273 M250.781 179.102 L 250.781 180.469 252.832 180.398 L 254.883 180.328 252.986 180.180 C 251.136 180.036,251.094 180.004,251.259 178.883 C 251.351 178.251,251.282 177.734,251.104 177.734 C 250.927 177.734,250.781 178.350,250.781 179.102 M124.379 184.766 C 124.379 188.525,124.438 190.063,124.510 188.184 C 124.581 186.304,124.581 183.228,124.510 181.348 C 124.438 179.468,124.379 181.006,124.379 184.766 M146.191 180.358 C 146.782 180.447,147.749 180.447,148.340 180.358 C 148.931 180.268,148.447 180.195,147.266 180.195 C 146.084 180.195,145.601 180.268,146.191 180.358 M151.666 180.358 C 152.259 180.448,153.138 180.446,153.619 180.353 C 154.099 180.260,153.613 180.187,152.539 180.190 C 151.465 180.193,151.072 180.269,151.666 180.358 M246.777 180.354 C 247.261 180.447,248.052 180.447,248.535 180.354 C 249.019 180.261,248.623 180.185,247.656 180.185 C 246.689 180.185,246.294 180.261,246.777 180.354 M155.337 180.859 C 155.586 181.182,155.867 181.973,155.962 182.617 L 156.133 183.789 156.191 182.567 C 156.228 181.813,155.988 181.140,155.566 180.810 C 154.971 180.343,154.942 180.349,155.337 180.859 M143.471 183.789 C 143.474 184.863,143.550 185.256,143.640 184.663 C 143.729 184.069,143.727 183.190,143.634 182.709 C 143.542 182.229,143.468 182.715,143.471 183.789 M243.893 185.742 C 243.894 187.891,243.959 188.720,244.038 187.585 C 244.118 186.449,244.117 184.692,244.037 183.678 C 243.956 182.665,243.892 183.594,243.893 185.742 M247.027 182.589 C 246.909 182.895,246.891 183.555,246.986 184.054 C 247.121 184.758,247.171 184.683,247.212 183.716 C 247.259 182.618,247.416 182.453,248.535 182.314 L 249.805 182.156 248.523 182.094 C 247.727 182.055,247.160 182.242,247.027 182.589 M256.790 186.914 C 256.791 189.492,256.854 190.496,256.930 189.145 C 257.007 187.794,257.006 185.684,256.929 184.457 C 256.852 183.230,256.789 184.336,256.790 186.914 M99.902 191.692 C 100.815 191.775,102.310 191.775,103.223 191.692 C 104.136 191.610,103.389 191.543,101.563 191.543 C 99.736 191.543,98.989 191.610,99.902 191.692 M128.628 191.695 C 129.871 191.773,131.804 191.772,132.924 191.694 C 134.045 191.615,133.027 191.551,130.664 191.552 C 128.301 191.553,127.384 191.618,128.628 191.695 M267.871 191.689 C 268.569 191.775,269.712 191.775,270.410 191.689 C 271.108 191.602,270.537 191.531,269.141 191.531 C 267.744 191.531,267.173 191.602,267.871 191.689 M295.801 191.695 C 297.036 191.772,299.058 191.772,300.293 191.695 C 301.528 191.617,300.518 191.554,298.047 191.554 C 295.576 191.554,294.565 191.617,295.801 191.695 M146.575 193.359 C 146.575 194.111,146.655 194.419,146.754 194.043 C 146.852 193.667,146.852 193.052,146.754 192.676 C 146.655 192.300,146.575 192.607,146.575 193.359 M103.032 193.636 C 103.518 193.729,104.221 193.726,104.594 193.628 C 104.968 193.530,104.570 193.454,103.711 193.458 C 102.852 193.462,102.546 193.542,103.032 193.636 M126.270 193.629 C 126.646 193.727,127.261 193.727,127.637 193.629 C 128.013 193.530,127.705 193.450,126.953 193.450 C 126.201 193.450,125.894 193.530,126.270 193.629 M295.020 193.629 C 295.396 193.727,296.011 193.727,296.387 193.629 C 296.763 193.530,296.455 193.450,295.703 193.450 C 294.951 193.450,294.644 193.530,295.020 193.629 M197.559 212.776 C 198.042 212.869,198.833 212.869,199.316 212.776 C 199.800 212.683,199.404 212.606,198.438 212.606 C 197.471 212.606,197.075 212.683,197.559 212.776 M100.121 227.539 C 100.123 228.828,100.196 229.308,100.283 228.606 C 100.370 227.904,100.368 226.850,100.279 226.263 C 100.190 225.676,100.119 226.250,100.121 227.539 M258.310 241.797 C 258.310 242.764,258.386 243.159,258.479 242.676 C 258.572 242.192,258.572 241.401,258.479 240.918 C 258.386 240.435,258.310 240.830,258.310 241.797 M141.497 242.188 C 141.497 242.939,141.577 243.247,141.676 242.871 C 141.774 242.495,141.774 241.880,141.676 241.504 C 141.577 241.128,141.497 241.436,141.497 242.188 M264.160 249.879 C 264.536 249.977,265.151 249.977,265.527 249.879 C 265.903 249.780,265.596 249.700,264.844 249.700 C 264.092 249.700,263.784 249.780,264.160 249.879 M193.059 259.766 C 193.059 260.518,193.140 260.825,193.238 260.449 C 193.336 260.073,193.336 259.458,193.238 259.082 C 193.140 258.706,193.059 259.014,193.059 259.766 " stroke="none" fill="#625a4e" fill-rule="evenodd"></path><path id="path3" d="M198.763 60.919 C 198.680 61.789,198.749 62.500,198.915 62.500 C 199.082 62.500,199.228 61.929,199.239 61.230 L 199.260 59.961 200.137 61.719 C 201.259 63.969,204.335 69.141,204.550 69.141 C 204.761 69.141,204.137 67.976,202.352 65.039 C 201.568 63.750,200.653 62.000,200.319 61.150 C 199.504 59.081,198.946 58.999,198.763 60.919 M195.313 69.922 C 194.874 70.781,194.603 71.484,194.711 71.484 C 194.818 71.484,195.265 70.781,195.703 69.922 C 196.142 69.063,196.412 68.359,196.305 68.359 C 196.198 68.359,195.751 69.063,195.313 69.922 M205.350 70.894 C 205.707 71.643,206.069 72.186,206.154 72.102 C 206.332 71.923,205.146 69.531,204.879 69.531 C 204.781 69.531,204.992 70.144,205.350 70.894 M206.282 72.656 C 206.265 72.764,206.594 73.730,207.013 74.805 C 207.433 75.879,207.780 76.494,207.784 76.172 C 207.792 75.618,206.349 72.241,206.282 72.656 M208.120 80.136 C 208.284 83.267,208.113 84.355,206.800 88.560 C 206.608 89.174,206.638 89.169,207.051 88.520 C 208.329 86.514,209.071 79.681,208.242 77.561 C 208.078 77.144,208.023 78.302,208.120 80.136 M199.039 78.491 C 198.890 78.731,199.025 78.806,199.369 78.674 C 199.906 78.468,201.404 80.339,202.056 82.031 C 202.257 82.552,202.284 82.552,202.300 82.031 C 202.344 80.595,199.588 77.603,199.039 78.491 M190.716 83.594 C 190.716 84.346,190.796 84.653,190.894 84.277 C 190.993 83.901,190.993 83.286,190.894 82.910 C 190.796 82.534,190.716 82.842,190.716 83.594 M202.591 83.789 C 202.718 84.434,202.956 85.840,203.120 86.914 C 203.408 88.802,203.419 88.815,203.437 87.305 C 203.447 86.445,203.209 85.039,202.908 84.180 C 202.537 83.119,202.435 82.993,202.591 83.789 M195.794 88.281 C 195.794 89.033,195.874 89.341,195.972 88.965 C 196.071 88.589,196.071 87.974,195.972 87.598 C 195.874 87.222,195.794 87.529,195.794 88.281 M192.189 89.681 C 192.191 90.126,193.667 92.578,193.933 92.578 C 194.040 92.578,193.760 91.919,193.311 91.113 C 192.365 89.416,192.187 89.189,192.189 89.681 M195.748 91.676 C 195.724 92.791,195.838 93.787,196.003 93.889 C 196.168 93.991,196.247 93.343,196.178 92.448 C 195.975 89.819,195.797 89.499,195.748 91.676 M203.184 92.676 C 203.151 93.267,203.112 93.877,203.096 94.033 C 203.035 94.616,203.819 94.540,204.049 93.942 C 204.180 93.599,204.126 93.419,203.928 93.541 C 203.731 93.663,203.495 93.277,203.405 92.682 L 203.242 91.602 203.184 92.676 M193.949 94.147 C 194.084 94.365,194.340 94.454,194.517 94.345 C 194.866 94.129,195.374 95.088,195.497 96.191 C 195.614 97.251,195.996 97.409,196.280 96.514 C 196.421 96.068,196.720 95.703,196.943 95.703 C 197.166 95.703,197.262 95.929,197.156 96.205 C 197.041 96.505,197.261 96.708,197.701 96.708 C 198.309 96.708,198.429 96.434,198.386 95.131 L 198.335 93.555 198.047 94.922 C 197.749 96.337,197.516 96.169,197.641 94.629 C 197.731 93.518,196.973 93.465,196.805 94.570 L 196.680 95.390 195.642 94.570 C 194.561 93.717,193.523 93.457,193.949 94.147 M283.612 149.314 C 283.338 150.228,282.517 152.163,281.786 153.613 C 281.056 155.063,280.546 156.250,280.654 156.250 C 280.915 156.250,283.191 151.715,283.772 150.037 L 284.235 148.699 285.692 151.303 C 286.492 152.735,287.231 153.906,287.334 153.906 C 287.469 153.906,284.785 148.676,284.176 147.751 C 284.139 147.696,283.886 148.399,283.612 149.314 M116.029 148.340 C 116.021 148.608,116.165 148.828,116.347 148.828 C 116.529 148.828,116.868 149.224,117.101 149.707 C 117.335 150.190,117.537 150.386,117.552 150.141 C 117.566 149.896,117.232 149.281,116.810 148.774 C 116.387 148.267,116.036 148.071,116.029 148.340 M118.164 151.953 C 118.497 152.598,118.858 153.125,118.965 153.125 C 119.073 153.125,118.888 152.598,118.555 151.953 C 118.221 151.309,117.861 150.781,117.753 150.781 C 117.646 150.781,117.831 151.309,118.164 151.953 M114.656 152.711 C 114.513 153.162,114.208 153.410,113.974 153.266 C 113.725 153.112,113.664 153.186,113.825 153.447 C 113.975 153.691,113.909 154.245,113.676 154.679 C 113.444 155.114,113.344 155.469,113.455 155.469 C 113.768 155.469,115.312 152.292,115.102 152.081 C 114.999 151.978,114.798 152.262,114.656 152.711 M120.116 155.467 C 120.660 156.541,121.261 158.079,121.451 158.885 C 121.712 159.994,121.806 160.114,121.835 159.375 C 121.873 158.428,119.786 153.516,119.346 153.516 C 119.226 153.516,119.572 154.394,120.116 155.467 M289.570 161.328 C 289.570 162.510,289.643 162.993,289.733 162.402 C 289.822 161.812,289.822 160.845,289.733 160.254 C 289.643 159.663,289.570 160.146,289.570 161.328 M116.234 160.119 C 116.083 160.364,116.248 160.547,116.620 160.547 C 117.079 160.547,117.194 160.749,117.011 161.230 C 116.801 161.781,116.847 161.818,117.245 161.423 C 117.644 161.027,117.620 160.812,117.119 160.311 C 116.697 159.889,116.414 159.827,116.234 160.119 M249.600 160.254 C 249.595 160.522,249.175 161.753,248.667 162.988 C 248.159 164.224,247.822 165.234,247.917 165.234 C 248.084 165.234,249.216 162.740,249.771 161.150 C 249.995 160.507,250.221 160.708,251.198 162.420 C 252.800 165.224,253.001 164.986,251.454 162.116 C 250.238 159.857,249.619 159.236,249.600 160.254 M283.417 160.840 C 283.208 161.388,283.254 161.427,283.649 161.035 C 284.333 160.356,284.896 160.425,284.617 161.153 C 284.489 161.487,284.539 161.663,284.729 161.546 C 284.919 161.429,285.347 161.991,285.681 162.795 C 286.015 163.600,286.297 164.031,286.308 163.754 C 286.386 161.802,283.976 159.373,283.417 160.840 M121.577 163.125 C 121.318 164.363,121.171 165.442,121.251 165.522 C 121.475 165.745,122.358 161.800,122.194 161.308 C 122.114 161.070,121.837 161.888,121.577 163.125 M150.397 161.178 C 150.393 161.417,150.754 162.076,151.199 162.641 C 151.643 163.206,152.533 164.679,153.177 165.916 C 153.821 167.152,154.228 167.725,154.081 167.188 C 153.935 166.650,153.224 165.244,152.502 164.063 C 150.631 161.001,150.403 160.689,150.397 161.178 M117.614 161.719 C 117.599 161.826,117.831 162.721,118.131 163.706 C 118.430 164.692,118.648 166.230,118.615 167.124 C 118.582 168.019,118.711 168.750,118.902 168.750 C 119.415 168.750,118.931 164.473,118.240 162.891 C 117.911 162.139,117.629 161.611,117.614 161.719 M282.253 163.704 C 281.916 164.839,281.651 166.130,281.663 166.575 C 281.676 167.019,282.008 166.152,282.403 164.648 C 283.248 161.425,283.138 160.726,282.253 163.704 M278.741 164.648 C 278.865 165.508,279.123 166.372,279.314 166.568 C 279.504 166.765,279.480 166.238,279.260 165.396 C 278.673 163.150,278.484 162.879,278.741 164.648 M116.160 164.719 C 116.302 164.973,116.240 165.291,116.022 165.426 C 115.804 165.561,115.625 165.849,115.625 166.067 C 115.625 166.284,115.913 166.175,116.264 165.823 C 116.781 165.306,116.807 165.096,116.402 164.721 C 116.020 164.368,115.963 164.368,116.160 164.719 M147.461 165.625 C 147.128 166.270,146.943 166.797,147.050 166.797 C 147.158 166.797,147.518 166.270,147.852 165.625 C 148.185 164.980,148.370 164.453,148.262 164.453 C 148.155 164.453,147.794 164.980,147.461 165.625 M286.325 166.504 C 286.212 167.821,286.294 168.819,286.523 168.915 C 286.738 169.005,286.694 169.093,286.426 169.110 C 286.157 169.127,285.938 169.311,285.938 169.519 C 285.938 170.072,287.011 169.570,287.270 168.895 C 287.392 168.578,287.326 168.421,287.125 168.545 C 286.917 168.673,286.706 167.792,286.638 166.515 L 286.518 164.258 286.325 166.504 M111.541 166.113 C 111.687 166.597,111.967 167.164,112.164 167.374 C 112.360 167.584,112.323 167.188,112.082 166.495 C 111.587 165.076,111.130 164.753,111.541 166.113 M246.275 167.676 C 245.750 168.804,245.331 169.990,245.344 170.313 C 245.357 170.635,245.600 170.267,245.884 169.495 C 246.169 168.722,246.688 167.536,247.039 166.858 C 247.389 166.180,247.576 165.625,247.453 165.625 C 247.330 165.625,246.800 166.548,246.275 167.676 M283.234 166.504 L 283.203 167.578 283.999 166.783 C 284.436 166.345,285.007 166.107,285.268 166.254 C 285.639 166.463,285.639 166.410,285.270 166.011 C 284.902 165.613,284.676 165.604,284.234 165.970 C 283.792 166.337,283.626 166.329,283.467 165.934 C 283.356 165.657,283.251 165.913,283.234 166.504 M113.811 168.309 C 114.042 169.520,114.007 169.584,113.379 169.097 C 112.846 168.685,112.866 168.781,113.472 169.538 C 113.900 170.071,114.314 170.596,114.394 170.703 C 114.473 170.811,114.454 170.144,114.350 169.223 C 114.246 168.301,114.026 167.422,113.861 167.269 C 113.695 167.117,113.673 167.585,113.811 168.309 M145.916 168.712 C 145.536 169.555,145.318 170.479,145.433 170.767 C 145.571 171.112,145.652 171.051,145.672 170.586 C 145.689 170.199,145.980 169.348,146.318 168.694 C 146.656 168.040,146.859 167.432,146.770 167.343 C 146.680 167.253,146.296 167.869,145.916 168.712 M281.371 168.390 C 281.525 168.980,281.433 169.144,281.032 168.991 C 280.577 168.816,280.564 168.913,280.959 169.546 C 281.681 170.701,282.066 170.471,281.964 168.945 C 281.913 168.193,281.711 167.578,281.515 167.578 C 281.319 167.578,281.254 167.944,281.371 168.390 M149.096 170.912 C 148.183 172.827,148.301 173.176,149.252 171.374 C 149.714 170.497,150.209 170.005,150.467 170.164 C 150.731 170.327,150.792 170.256,150.623 169.982 C 150.161 169.234,149.787 169.462,149.096 170.912 M254.786 171.289 C 254.790 172.148,254.870 172.454,254.964 171.968 C 255.057 171.482,255.054 170.779,254.956 170.406 C 254.858 170.032,254.782 170.430,254.786 171.289 M248.485 172.363 C 247.988 173.712,247.565 175.612,247.819 175.359 C 248.121 175.056,249.188 171.484,248.976 171.484 C 248.884 171.484,248.663 171.880,248.485 172.363 M251.424 172.656 C 251.733 174.341,251.955 174.659,251.947 173.405 C 251.944 172.886,251.768 172.197,251.557 171.875 C 251.287 171.463,251.247 171.694,251.424 172.656 M147.879 174.051 C 147.736 174.624,147.694 175.168,147.786 175.260 C 147.878 175.352,148.071 174.959,148.214 174.386 C 148.358 173.814,148.400 173.270,148.308 173.178 C 148.216 173.086,148.023 173.479,147.879 174.051 M149.635 174.383 C 149.257 174.839,149.319 174.901,149.984 174.727 C 150.961 174.471,151.443 173.828,150.657 173.828 C 150.348 173.828,149.888 174.078,149.635 174.383 M151.984 174.219 C 151.138 175.868,151.902 178.899,152.760 177.297 C 153.035 176.783,153.049 176.563,152.797 176.719 C 152.553 176.870,152.331 176.386,152.238 175.496 C 152.154 174.686,152.039 174.111,151.984 174.219 M250.316 175.195 C 250.514 175.625,250.773 176.240,250.893 176.563 C 251.081 177.069,251.114 177.066,251.141 176.540 C 251.158 176.205,250.899 175.589,250.564 175.172 C 249.967 174.426,249.963 174.427,250.316 175.195 M251.881 175.957 C 251.792 176.720,251.870 177.344,252.055 177.344 C 252.239 177.344,252.263 177.563,252.109 177.832 C 251.952 178.105,251.980 178.182,252.172 178.006 C 252.473 177.732,252.461 175.001,252.157 174.687 C 252.095 174.622,251.970 175.194,251.881 175.957 M115.788 182.227 C 115.788 186.309,115.846 187.925,115.916 185.820 C 115.987 183.714,115.987 180.374,115.916 178.398 C 115.845 176.422,115.787 178.145,115.788 182.227 M147.715 176.660 C 147.683 177.036,147.437 177.349,147.168 177.356 C 146.888 177.363,146.996 177.608,147.421 177.930 C 148.207 178.525,148.832 178.384,148.822 177.614 C 148.818 177.319,148.687 177.352,148.464 177.705 C 148.199 178.123,148.070 177.978,147.943 177.119 C 147.849 176.491,147.747 176.284,147.715 176.660 M249.708 191.992 C 249.712 192.852,249.792 193.157,249.886 192.671 C 249.979 192.185,249.976 191.482,249.878 191.109 C 249.780 190.735,249.704 191.133,249.708 191.992 M122.954 193.636 C 123.440 193.729,124.143 193.726,124.516 193.628 C 124.890 193.530,124.492 193.454,123.633 193.458 C 122.773 193.462,122.468 193.542,122.954 193.636 M273.145 193.629 C 273.521 193.727,274.136 193.727,274.512 193.629 C 274.888 193.530,274.580 193.450,273.828 193.450 C 273.076 193.450,272.769 193.530,273.145 193.629 M291.704 193.636 C 292.190 193.729,292.893 193.726,293.266 193.628 C 293.640 193.530,293.242 193.454,292.383 193.458 C 291.523 193.462,291.218 193.542,291.704 193.636 M290.527 194.807 C 291.011 194.900,291.802 194.900,292.285 194.807 C 292.769 194.714,292.373 194.638,291.406 194.638 C 290.439 194.638,290.044 194.714,290.527 194.807 M198.730 204.573 C 199.214 204.666,200.005 204.666,200.488 204.573 C 200.972 204.479,200.576 204.403,199.609 204.403 C 198.643 204.403,198.247 204.479,198.730 204.573 " stroke="none" fill="#847c72" fill-rule="evenodd"></path><path id="path4" d="M200.844 96.364 C 200.773 97.776,201.143 98.180,201.972 97.594 C 202.440 97.262,202.424 97.229,201.879 97.403 C 201.370 97.565,201.182 97.327,201.062 96.366 L 200.906 95.117 200.844 96.364 M247.875 178.088 C 247.731 178.320,247.787 178.818,247.999 179.196 C 248.365 179.847,248.399 179.846,248.658 179.173 C 248.973 178.356,248.292 177.413,247.875 178.088 " stroke="none" fill="#7e746c" fill-rule="evenodd"></path></g></svg>