<svg xmlns="http://www.w3.org/2000/svg" viewBox="0 0 200 200" width="200" height="200">
  <title>ChandeliERP Isotipo</title>
  <rect width="200" height="200" fill="#1A1A2E" rx="100"/>
  <g transform="translate(0, 5)">
    <path d="M 100 185
  C 52 170 38 140 48 108
  C 55 84 68 65 74 42
  C 82 55 80 78 84 90
  C 90 70 94 42 90 22
  C 112 48 120 80 110 102
  C 122 88 128 68 122 48
  C 148 72 152 108 136 128
  C 145 116 145 140 130 158
  C 120 172 110 184 100 185 Z" fill="#C17B2B" opacity="0.15"/>
    <path d="M 100 185
  C 52 170 38 140 48 108
  C 55 84 68 65 74 42
  C 82 55 80 78 84 90
  C 90 70 94 42 90 22
  C 112 48 120 80 110 102
  C 122 88 128 68 122 48
  C 148 72 152 108 136 128
  C 145 116 145 140 130 158
  C 120 172 110 184 100 185 Z" fill="#C17B2B"/>
    <line x1="48" y1="178" x2="128" y2="130" stroke="#D4A843" stroke-width="4"
          stroke-linecap="round"/>
  </g>
</svg>
